<svg xmlns="http://www.w3.org/2000/svg" xmlns:xlink="http://www.w3.org/1999/xlink" width="102.41" height="33.5" viewBox="0 0 102.41 33.5">
  <defs>
    <clipPath id="clip-path">
      <path id="Path_2642" data-name="Path 2642" d="M149.518,337.991l-4.618-2.666-8.907-5.143c-.495-.285-.987-.113-.987.484v20.953c0,.447.352.64.782.392l9.112-5.262,4.618-2.666,4.439-2.562c.521-.3.471-.714.031-.95S149.518,337.991,149.518,337.991Z" transform="translate(-135.006 -330.047)" fill="none"/>
    </clipPath>
    <linearGradient id="linear-gradient" x1="0.5" x2="0.5" y2="1" gradientUnits="objectBoundingBox">
      <stop offset="0" stop-color="#0067a2"/>
      <stop offset="0.403" stop-color="#3d91a8"/>
      <stop offset="0.805" stop-color="#74b7ae"/>
      <stop offset="1" stop-color="#8ac6b1"/>
    </linearGradient>
    <linearGradient id="linear-gradient-2" y1="0.5" x2="1" y2="0.5" gradientUnits="objectBoundingBox">
      <stop offset="0" stop-color="#50b09b"/>
      <stop offset="1" stop-color="#e9e486"/>
    </linearGradient>
    <linearGradient id="linear-gradient-3" x1="0.5" x2="0.5" y2="1" gradientUnits="objectBoundingBox">
      <stop offset="0" stop-color="#dc1b24"/>
      <stop offset="0.228" stop-color="#c1203b"/>
      <stop offset="0.748" stop-color="#8a2b6c"/>
      <stop offset="1" stop-color="#753080"/>
    </linearGradient>
    <linearGradient id="linear-gradient-4" x1="0.5" x2="0.5" y2="1" gradientUnits="objectBoundingBox">
      <stop offset="0" stop-color="#eb7165"/>
      <stop offset="0.003" stop-color="#eb7164"/>
      <stop offset="0.675" stop-color="#f9a85e"/>
      <stop offset="1" stop-color="#ffbe5c"/>
    </linearGradient>
  </defs>
  <g id="Group_271" data-name="Group 271" transform="translate(-96.641 -296.074)">
    <path id="Path_2637" data-name="Path 2637" d="M199.051,325.046a4.527,4.527,0,0,1-4.526,4.528H101.168a4.528,4.528,0,0,1-4.527-4.528V300.6a4.528,4.528,0,0,1,4.527-4.527h93.356a4.527,4.527,0,0,1,4.526,4.527Z" transform="translate(0)" fill="#161615"/>
    <g id="PLAY" transform="translate(104.323 302.876)">
      <g id="Group_266" data-name="Group 266" transform="translate(0 0)" clip-path="url(#clip-path)">
        <path id="Path_2638" data-name="Path 2638" d="M135.006,328.285v22.686l11.439-11.343Z" transform="translate(-135.006 -328.638)" fill="url(#linear-gradient)"/>
        <path id="Path_2639" data-name="Path 2639" d="M149.518,336.252l-4.618-2.666-9.894-5.713v.083L146.445,339.3Z" transform="translate(-135.006 -328.308)" fill="url(#linear-gradient-2)"/>
        <path id="Path_2640" data-name="Path 2640" d="M135.006,396.28v.083l9.894-5.713,4.618-2.666-3.072-3.046Z" transform="translate(-135.006 -373.947)" fill="url(#linear-gradient-3)"/>
        <path id="Path_2641" data-name="Path 2641" d="M195.212,369.721l-3.073,3.047,3.072,3.046,5.277-3.047Z" transform="translate(-180.7 -361.777)" fill="url(#linear-gradient-4)"/>
      </g>
    </g>
    <g id="Group_267" data-name="Group 267" transform="translate(173.271 308.814)">
      <path id="Path_2643" data-name="Path 2643" d="M482.438,379.77a2.853,2.853,0,0,1-1.177-.238,2.217,2.217,0,0,1-.894-.731h-.072a8.865,8.865,0,0,1,.072,1.1v2.715h-1v-9.559h.813l.138.9h.048a2.322,2.322,0,0,1,.9-.782,2.725,2.725,0,0,1,1.173-.241,2.438,2.438,0,0,1,2.026.9,4.777,4.777,0,0,1-.011,5.042A2.444,2.444,0,0,1,482.438,379.77Zm-.145-5.989a1.771,1.771,0,0,0-1.462.56,2.882,2.882,0,0,0-.464,1.782v.223a3.3,3.3,0,0,0,.464,1.99,1.763,1.763,0,0,0,1.487.6,1.547,1.547,0,0,0,1.34-.692,3.285,3.285,0,0,0,.484-1.909,3.161,3.161,0,0,0-.484-1.893A1.6,1.6,0,0,0,482.293,373.781Z" transform="translate(-479.368 -370.283)" fill="#f9f9f9"/>
      <path id="Path_2644" data-name="Path 2644" d="M515.943,369.069h-1V359.7h1Z" transform="translate(-507.821 -359.703)" fill="#f9f9f9"/>
      <path id="Path_2645" data-name="Path 2645" d="M530.448,379.7l-.2-.939H530.2a2.769,2.769,0,0,1-.984.84,2.99,2.99,0,0,1-1.225.22,2.2,2.2,0,0,1-1.538-.506,1.844,1.844,0,0,1-.557-1.439q0-2,3.2-2.095l1.12-.036v-.409a1.671,1.671,0,0,0-.334-1.147,1.373,1.373,0,0,0-1.068-.37,4.351,4.351,0,0,0-1.866.506l-.307-.765a4.7,4.7,0,0,1,1.069-.415,4.624,4.624,0,0,1,1.165-.151,2.513,2.513,0,0,1,1.749.524,2.188,2.188,0,0,1,.569,1.68v4.5Zm-2.257-.7a2.03,2.03,0,0,0,1.466-.512,1.894,1.894,0,0,0,.533-1.433v-.6l-1,.042a3.635,3.635,0,0,0-1.719.371,1.116,1.116,0,0,0-.527,1.02,1.028,1.028,0,0,0,.328.824A1.36,1.36,0,0,0,528.191,378.994Z" transform="translate(-516.581 -370.331)" fill="#f9f9f9"/>
      <path id="Path_2646" data-name="Path 2646" d="M555.222,373.533h1.071l1.445,3.762a14.381,14.381,0,0,1,.59,1.86h.048q.078-.307.328-1.051t1.634-4.572h1.072l-2.836,7.513a3.748,3.748,0,0,1-.984,1.581,2.093,2.093,0,0,1-1.381.466,4.042,4.042,0,0,1-.9-.1v-.8a3.49,3.49,0,0,0,.741.072,1.526,1.526,0,0,0,1.469-1.156l.367-.939Z" transform="translate(-540.034 -370.764)" fill="#f9f9f9"/>
    </g>
    <g id="Group_269" data-name="Group 269" transform="translate(127.718 308.076)">
      <path id="Path_2647" data-name="Path 2647" d="M381.69,374.61a2.248,2.248,0,0,1-.18,3.822.971.971,0,0,0-.386.677.757.757,0,0,0,.359.593l.5.386a2.4,2.4,0,0,1,1.158,1.933c0,1.3-1.256,2.608-3.629,2.608-2,0-2.967-.952-2.967-1.974a1.985,1.985,0,0,1,1.063-1.683,5.948,5.948,0,0,1,2.635-.635,1.444,1.444,0,0,1-.414-.937,1.246,1.246,0,0,1,.138-.539c-.152.014-.3.028-.442.028a2.182,2.182,0,0,1-2.29-2.166,2.482,2.482,0,0,1,.883-1.849,3.763,3.763,0,0,1,2.471-.759h2.842l-.883.5Zm-.98,6.127a2.142,2.142,0,0,0-.317-.014,5.522,5.522,0,0,0-1.449.222,1.55,1.55,0,0,0-1.187,1.421c0,.979.953,1.684,2.429,1.684,1.324,0,2.028-.636,2.028-1.491C382.215,381.854,381.759,381.483,380.71,380.737Zm.4-2.622a1.4,1.4,0,0,0,.344-1.008c0-.993-.593-2.539-1.738-2.539a1.289,1.289,0,0,0-.966.456,1.594,1.594,0,0,0-.3,1.021c0,.924.538,2.456,1.726,2.456A1.413,1.413,0,0,0,381.11,378.115Z" transform="translate(-351.578 -370.49)" fill="#f9f9f9"/>
      <path id="Path_2648" data-name="Path 2648" d="M345.434,379.734a3.251,3.251,0,0,1-3.361-3.252,3.414,3.414,0,0,1,3.569-3.347,3.221,3.221,0,0,1,3.292,3.251A3.366,3.366,0,0,1,345.434,379.734Zm1.722-1.116a2.492,2.492,0,0,0,.414-1.53c0-1.213-.578-3.527-2.287-3.527a1.919,1.919,0,0,0-1.24.469,2.085,2.085,0,0,0-.634,1.681c0,1.363.675,3.608,2.343,3.608A1.76,1.76,0,0,0,347.156,378.618Z" transform="translate(-324.01 -369.708)" fill="#f9f9f9"/>
      <path id="Path_2649" data-name="Path 2649" d="M308.138,379.734a3.251,3.251,0,0,1-3.362-3.252,3.414,3.414,0,0,1,3.569-3.347,3.221,3.221,0,0,1,3.292,3.251A3.366,3.366,0,0,1,308.138,379.734Zm1.722-1.116a2.5,2.5,0,0,0,.413-1.53c0-1.213-.579-3.527-2.287-3.527a1.92,1.92,0,0,0-1.24.469,2.085,2.085,0,0,0-.634,1.681c0,1.363.675,3.608,2.342,3.608A1.761,1.761,0,0,0,309.86,378.618Z" transform="translate(-294.18 -369.708)" fill="#f9f9f9"/>
      <path id="Path_2650" data-name="Path 2650" d="M261.4,367.062l-1.981.457a14.68,14.68,0,0,1-2.285.235,4.922,4.922,0,0,1-5.277-5.014,5.236,5.236,0,0,1,5.6-5.179,7.973,7.973,0,0,1,2.119.291,5.4,5.4,0,0,1,1.828.859l-1.15,1.094-.485.11.346-.554a3.959,3.959,0,0,0-2.964-1.3,3.826,3.826,0,0,0-3.837,4.087,4.9,4.9,0,0,0,4.9,5.055,4.126,4.126,0,0,0,1.759-.346v-2.23l-2.091.111,1.107-.6h2.937l-.36.346a.324.324,0,0,0-.139.221c-.014.125-.027.527-.027.665Z" transform="translate(-251.856 -357.251)" fill="#f9f9f9"/>
      <path id="Path_2651" data-name="Path 2651" d="M412.363,365.43c-.457-.042-.553-.124-.553-.665v-7.84c0-.03,0-.06.008-.089.056-.485.194-.568.624-.817H410.46l-1.039.5h1.059v8.552c0,.276-.055.318-.374.734h2.452l.512-.3C412.835,365.471,412.6,365.458,412.363,365.43Z" transform="translate(-377.873 -356.019)" fill="#f9f9f9"/>
      <path id="Path_2652" data-name="Path 2652" d="M432.211,379.263c-.151.083-.3.18-.453.248a3.2,3.2,0,0,1-1.336.262,2.94,2.94,0,0,1-1.83-.537,3.56,3.56,0,0,1-1.4-2.9,3.118,3.118,0,0,1,3.15-3.177,2.674,2.674,0,0,1,1.418.385,2.277,2.277,0,0,1,.962,1.361l-3.232,1.307-1.059.083a3.055,3.055,0,0,0,2.834,2.764,3.554,3.554,0,0,0,1.678-.481Zm-1.292-4.1c.261-.1.4-.179.4-.371a1.365,1.365,0,0,0-1.362-1.183,1.694,1.694,0,0,0-1.582,1.912c0,.234.027.481.042.73Z" transform="translate(-392.084 -369.725)" fill="#f9f9f9"/>
      <g id="Group_268" data-name="Group 268" transform="translate(41.044 3.431)">
        <path id="Path_2653" data-name="Path 2653" d="M457.256,373.25v.908h-.11v-.908h-.3v-.094h.711v.094Z" transform="translate(-456.846 -373.156)" fill="#f9f9f9"/>
        <path id="Path_2654" data-name="Path 2654" d="M462.054,374.158v-.916h-.005l-.28.916h-.086l-.282-.916h0v.916h-.1v-1h.172l.255.81h0l.251-.81h.174v1Z" transform="translate(-460.407 -373.156)" fill="#f9f9f9"/>
      </g>
    </g>
    <g id="Group_270" data-name="Group 270" transform="translate(127.742 302.823)">
      <path id="Path_2655" data-name="Path 2655" d="M254.7,332.9h-.688a4.567,4.567,0,0,0-.2-.8h-.994a4.157,4.157,0,0,0-.2.8h-.647q0-.084.5-1.377a10.819,10.819,0,0,0,.5-1.424h.813a11.889,11.889,0,0,0,.455,1.4A12.291,12.291,0,0,1,254.7,332.9Zm-.994-1.215a12.161,12.161,0,0,1-.368-1.2h-.034q0,.084-.381,1.2Z" transform="translate(-251.974 -330.038)" fill="#fbfcfc"/>
      <path id="Path_2656" data-name="Path 2656" d="M270.228,332.9H269.7a5.235,5.235,0,0,0-.591-.931,5.132,5.132,0,0,1-.705-1.215h-.034a7.582,7.582,0,0,1,.054.852q0,.531.03,1.295h-.529q.032-.667.032-1.465t-.032-1.335h.639a4.047,4.047,0,0,0,.531.91,5.355,5.355,0,0,1,.65,1.146h.032a8.163,8.163,0,0,1-.051-.86q0-.583-.03-1.2h.538q-.03.533-.03,1.335T270.228,332.9Z" transform="translate(-264.727 -330.038)" fill="#fbfcfc"/>
      <path id="Path_2657" data-name="Path 2657" d="M285.566,331.354a1.586,1.586,0,0,1-.392,1.067,1.367,1.367,0,0,1-1.1.456q-.318,0-.878-.026.028-.65.028-1.465,0-.783-.028-1.335h.376q.093,0,.275-.007l.239-.006a1.45,1.45,0,0,1,1.126.387A1.338,1.338,0,0,1,285.566,331.354Zm-.587.092a1.036,1.036,0,0,0-.241-.7.913.913,0,0,0-.736-.283,2.28,2.28,0,0,0-.254.019q.022.43.022.9,0,.514.021,1.02a1.423,1.423,0,0,0,.28.028.813.813,0,0,0,.685-.287A1.108,1.108,0,0,0,284.979,331.447Z" transform="translate(-276.948 -329.986)" fill="#fbfcfc"/>
      <path id="Path_2658" data-name="Path 2658" d="M300.318,332.851h-.637a4.225,4.225,0,0,0-.383-.94.5.5,0,0,0-.43-.179l-.239,0q0,.553.019,1.116h-.6q.028-.65.028-1.465,0-.783-.028-1.335h.372q.065,0,.27-.007t.38-.006q.987,0,.987.675a.758.758,0,0,1-.564.746v.032a.672.672,0,0,1,.381.339A7.487,7.487,0,0,1,300.318,332.851Zm-.806-1.979q0-.428-.551-.428a1.876,1.876,0,0,0-.357.03q.024.333.024.869.118,0,.2,0Q299.511,331.348,299.511,330.872Z" transform="translate(-288.825 -329.986)" fill="#fbfcfc"/>
      <path id="Path_2659" data-name="Path 2659" d="M313.835,331.193a1.545,1.545,0,0,1-.4,1.095,1.312,1.312,0,0,1-1,.435,1.264,1.264,0,0,1-.951-.4,1.4,1.4,0,0,1-.383-1.014,1.544,1.544,0,0,1,.4-1.095,1.312,1.312,0,0,1,1-.434,1.265,1.265,0,0,1,.951.4A1.4,1.4,0,0,1,313.835,331.193Zm-.593.062a1.11,1.11,0,0,0-.23-.729.709.709,0,0,0-.568-.28.656.656,0,0,0-.533.282,1.124,1.124,0,0,0-.219.712,1.107,1.107,0,0,0,.231.728.708.708,0,0,0,.567.281.655.655,0,0,0,.533-.283A1.125,1.125,0,0,0,313.241,331.255Z" transform="translate(-299.259 -329.78)" fill="#fbfcfc"/>
      <path id="Path_2660" data-name="Path 2660" d="M328.414,332.9H327.8q.028-.667.028-1.465T327.8,330.1h.609q-.028.542-.028,1.335Q328.386,332.25,328.414,332.9Z" transform="translate(-312.622 -330.038)" fill="#fbfcfc"/>
      <path id="Path_2661" data-name="Path 2661" d="M336.965,331.354a1.586,1.586,0,0,1-.391,1.067,1.367,1.367,0,0,1-1.1.456q-.318,0-.878-.026.028-.65.028-1.465,0-.783-.028-1.335h.376q.093,0,.275-.007l.239-.006a1.45,1.45,0,0,1,1.126.387A1.339,1.339,0,0,1,336.965,331.354Zm-.587.092a1.037,1.037,0,0,0-.241-.7.913.913,0,0,0-.736-.283,2.278,2.278,0,0,0-.254.019q.022.43.022.9,0,.514.021,1.02a1.423,1.423,0,0,0,.28.028.813.813,0,0,0,.685-.287A1.108,1.108,0,0,0,336.378,331.447Z" transform="translate(-318.056 -329.986)" fill="#fbfcfc"/>
      <path id="Path_2662" data-name="Path 2662" d="M356.177,332.9h-.688a4.532,4.532,0,0,0-.2-.8H354.3a4.15,4.15,0,0,0-.2.8h-.647q0-.084.5-1.377a10.8,10.8,0,0,0,.5-1.424h.813a11.873,11.873,0,0,0,.455,1.4A12.347,12.347,0,0,1,356.177,332.9Zm-.994-1.215a12.213,12.213,0,0,1-.368-1.2h-.034q0,.084-.381,1.2Z" transform="translate(-333.132 -330.038)" fill="#fbfcfc"/>
      <path id="Path_2663" data-name="Path 2663" d="M371.439,330.784a.838.838,0,0,1-.382.759,1.7,1.7,0,0,1-.936.245q-.1,0-.144,0,0,.4.024,1.067h-.6q.028-.621.028-1.465,0-.774-.028-1.335h.374q.079,0,.305-.007t.391-.006a1.231,1.231,0,0,1,.69.185A.626.626,0,0,1,371.439,330.784Zm-.555.118q0-.46-.611-.46a1.718,1.718,0,0,0-.323.032q.024.406.024.92c.036,0,.077,0,.125,0Q370.884,331.4,370.884,330.9Z" transform="translate(-345.885 -329.986)" fill="#fbfcfc"/>
      <path id="Path_2664" data-name="Path 2664" d="M384.323,330.784a.839.839,0,0,1-.382.759,1.7,1.7,0,0,1-.937.245c-.067,0-.115,0-.144,0q0,.4.024,1.067h-.6q.028-.621.028-1.465,0-.774-.028-1.335h.374q.08,0,.306-.007t.391-.006a1.231,1.231,0,0,1,.69.185A.625.625,0,0,1,384.323,330.784Zm-.555.118q0-.46-.611-.46a1.718,1.718,0,0,0-.323.032q.024.406.024.92.054,0,.125,0Q383.768,331.4,383.768,330.9Z" transform="translate(-356.19 -329.986)" fill="#fbfcfc"/>
      <path id="Path_2665" data-name="Path 2665" d="M402.613,331.193a1.544,1.544,0,0,1-.4,1.095,1.312,1.312,0,0,1-1,.435,1.264,1.264,0,0,1-.951-.4,1.405,1.405,0,0,1-.383-1.014,1.545,1.545,0,0,1,.4-1.095,1.313,1.313,0,0,1,1-.434,1.266,1.266,0,0,1,.951.4A1.4,1.4,0,0,1,402.613,331.193Zm-.594.062a1.109,1.109,0,0,0-.23-.729.708.708,0,0,0-.568-.28.656.656,0,0,0-.534.282,1.124,1.124,0,0,0-.219.712,1.108,1.108,0,0,0,.231.728.708.708,0,0,0,.567.281.654.654,0,0,0,.533-.283A1.124,1.124,0,0,0,402.019,331.255Z" transform="translate(-370.262 -329.78)" fill="#fbfcfc"/>
      <path id="Path_2666" data-name="Path 2666" d="M418.892,332.9h-.531a5.235,5.235,0,0,0-.591-.931,5.133,5.133,0,0,1-.706-1.215h-.034a7.622,7.622,0,0,1,.054.852q0,.531.03,1.295h-.529q.032-.667.032-1.465t-.032-1.335h.639a4.054,4.054,0,0,0,.531.91,5.36,5.36,0,0,1,.65,1.146h.032a8.12,8.12,0,0,1-.052-.86q0-.583-.03-1.2h.538q-.03.533-.03,1.335T418.892,332.9Z" transform="translate(-383.625 -330.038)" fill="#fbfcfc"/>
    </g>
  </g>
</svg>
