<svg xmlns="http://www.w3.org/2000/svg" width="225.131" height="137.131" viewBox="0 0 225.131 137.131">
  <g id="Group_161" data-name="Group 161" transform="translate(-183.252 -495.702)">
    <g id="Group_152" data-name="Group 152">
      <path id="Path_2565" data-name="Path 2565" d="M306,495.7H283.535l4.164,10.053-10.059-4.969v21.926l9.7-4.731-2.573,5.889,2.053,1.369,5.724-12.57-12.335,6.089V504.78l12.3,5.871-5.217-12.5h14.665l-6.412,12.52,12.49-5.914v3.023H310.6v-6.993l-9.549,4.593Z" fill="#346715"/>
      <g id="Group_151" data-name="Group 151">
        <path id="Path_2566" data-name="Path 2566" d="M323.633,529.3l-11.974-5.539L317.3,544.93h-5.2l-1.37-3.8v-21.4l-10.012,4.85a6.539,6.539,0,0,0-1.42-5.876,7.137,7.137,0,0,0-4.448-2.286v-2.057l10.373,4.857,1.18-2.027a4.348,4.348,0,0,1-.8-5.567,4.124,4.124,0,0,1,4.7-1.721,4.248,4.248,0,0,1,3.141,4.288,4.314,4.314,0,0,1-1.3,3.023l1.183,1.973,10.3-4.8ZM287.5,537.558l.892-.414-.49,1.723Zm12.973-.056-.4,1.308-.484-1.722Zm7.9.7L295.9,533l6.442,21.16H297.17l-1.7-4.959h-2.488l-1.426,4.959H285.8l6.237-21.175-12.083,5.451-.015-14.9,10.263,4.831,1.179-2.092A5.02,5.02,0,0,1,290.135,524a4.457,4.457,0,0,1,.829-3.655,4.156,4.156,0,0,1,3.644-1.718,4.456,4.456,0,0,1,3.931,4.149,4.256,4.256,0,0,1-1.554,3.661l1.147,1.959,10.242-4.979Zm-1.971,6.769h-4.449l-.579-2.192,1.306-4.429,5.03,2.087Zm-24.314,0L280.6,540.7l4.764-2.183,1.307,4.469-.573,1.989Zm43.889-34.28-10.328,4.779a6.623,6.623,0,0,0-10.495-6.681,6.281,6.281,0,0,0-2.381,6.808l-10.269-4.944v5.984a6.627,6.627,0,0,0-3.7,2.768,6.716,6.716,0,0,0-1.1,4.6,5.473,5.473,0,0,0,.195.807L277.642,519.9v20.791l-1.251,4.282h-5.734l6.214-21.19-12.061,5.578V514.313l10.357,4.892,1.224-2.072a4.335,4.335,0,0,1-1.273-4.682,4.445,4.445,0,0,1,2.509-2.45v-2.362a6.431,6.431,0,0,0-4.687,3.971,6.329,6.329,0,0,0-.167,3.99l-10.283-4.924v22.275l10.733-4.978-5.659,19.272h10.6l1.016-3.478,1.164,3.481h5.078l-2.711,9.2h10.6l.994-3.492,1.219,3.456h9.982l-2.83-9.148h5.5l1.026-3.548,1.181,3.53h9.946l-5.125-19.218,10.765,4.9Z"/>
      </g>
    </g>
    <g id="Group_160" data-name="Group 160">
      <g id="Group_153" data-name="Group 153">
        <path id="Path_2567" data-name="Path 2567" d="M194.386,593.4h-.818l-.01.085c-.335,2.605-.653,5.067-3.686,5.067h-.033v-7.925c0-1.38.355-1.529,1.749-1.529,4.35,0,5,2.15,5.549,5.69l.013.081h.792v-7.137h-14.69v1.047l.118.012c1.193.1,2.137.18,2.137,2.357v16.73c0,2.05-.718,2.153-2.146,2.356l-.109.016v1.044h9.4v-1.051l-.092-.007c-1.757-.1-2.725-.159-2.725-2.358v-7.955c2.953.048,3.42,2.314,3.719,5.27l.008.084h.82Z" fill="#346715"/>
        <path id="Path_2568" data-name="Path 2568" d="M218.055,590.456c.124-1.046.163-1.363,1.484-1.363,2.043,0,3,1.552,3,4.88,0,4.33-1.177,5.148-4.481,5.194Zm42,12.482h-4.724l2.28-7.96Zm-56.388,0h-4.727l2.275-7.96Zm64.314,7.295c-1.145.058-1.527-1.012-2.691-4.742L259.6,587.313l-.02-.068h-.864l-5.7,19.011c-.687,2.329-1.033,3.5-2.1,3.888-1.29-.263-1.7-.583-1.7-3V591.865c0-2.874.762-2.945,2.143-3.081l.106-.01v-1.047h-6.614l-5.036,16.088-5.043-16.088h-6.636v1.047l.089.01c1.776.17,2.187.611,2.187,2.359v16.418c0,1.721-.215,2.311-1.687,2.587a1.167,1.167,0,0,1-.5-.518l-5.1-9.763c1.424-.6,3.979-1.741,3.979-5.961,0-5.378-4.577-6.179-7.3-6.179h-8.327v1.047l.1.01c1.433.138,2.15.2,2.15,3.081v15.281c0,2.74-.458,2.814-2.167,3.087-1.118.031-1.532-1.134-2.653-4.742l-5.7-18.178-.021-.068h-.864l-5.688,19.011c-.758,2.548-1.107,3.711-2.438,3.977l-.078.017v1.039h5.38v-1.051l-.09-.005c-1.052-.08-2-.246-2-1.39a27.925,27.925,0,0,1,1.1-4.367h5.6a23.188,23.188,0,0,1,1.157,4.5c0,1.043-.363,1.082-1.889,1.25l-.149.016v1.046H220.3V610.25l-.079-.017c-1.666-.3-2.168-.4-2.168-3.087v-6.678h.526l5.267,10.765.026.056H234.26V610.24l-.089-.007c-1.985-.163-2.5-.847-2.5-3.33V591.3l6.279,19.992h.834l6.269-20.487v16.93c0,2.2-.686,2.3-2.191,2.5l-.085.012v1.044h13.109v-1.051l-.09-.005c-1.056-.08-2.005-.246-2.005-1.39a28.159,28.159,0,0,1,1.1-4.367H260.5a24.448,24.448,0,0,1,1.15,4.5c0,1.043-.364,1.082-1.895,1.25l-.148.016v1.046h8.475v-1.062Z" fill="#346715"/>
        <path id="Path_2569" data-name="Path 2569" d="M280.768,595.6l-.228-7.782H280c-.2,1.145-1.047,1.145-1.174,1.145-.563,0-2.225-1.145-4.5-1.145-4.4,0-8.691,4.185-8.691,11.928,0,8.607,4.416,11.924,8.533,11.924,4.705,0,6.9-4.319,6.928-4.385l-.458-.62c-.792,1.032-2.629,3.485-5.78,3.485-3.217,0-6.264-3.007-6.264-10.333,0-4.974,1.129-7.19,2.126-8.5a4.974,4.974,0,0,1,3.833-2.114c3.145,0,4.981,2.769,5.627,6.4Z"/>
        <path id="Path_2570" data-name="Path 2570" d="M289.588,610.43c-2.839,0-5.444-3.076-5.444-10.681,0-7.884,2.836-10.682,5.444-10.682s5.447,2.8,5.447,10.682c0,7.6-2.607,10.681-5.447,10.681m0,1.246c4.633,0,8.362-4.53,8.362-11.89,0-7.95-4.167-11.965-8.362-11.965s-8.359,4.015-8.359,11.965c0,7.36,3.731,11.89,8.359,11.89"/>
        <path id="Path_2571" data-name="Path 2571" d="M314.66,588.307h-6v.659c1.738.17,2.456.446,2.456,4.422v11.551h-.056l-9.789-16.632H296.9v.659c1.02,0,1.428.17,2.476,1.9v15.248c0,3.734-.533,4.251-2.476,4.422v.658H302.9v-.658c-1.872-.1-2.406-.859-2.406-4.422V592.63h.052L311.8,611.574h.436V593.388c0-4.042.817-4.183,2.425-4.422Z"/>
        <path id="Path_2572" data-name="Path 2572" d="M324.246,587.821H323.7c-.049.38-.176,1.177-.892,1.177-.635,0-2.017-1.177-3.547-1.177-2.31,0-4.629,1.94-4.629,5.88,0,3.418,1.194,6.777,3.986,6.777,4.838,0,4.16,4.145,4.16,6.112,0,1.868-1.019,3.84-3.062,3.84-3.452,0-4.757-4.49-5.239-6.114h-.588l.766,7.328h.562c0-.558.257-1.143.794-1.143.766,0,2.017,1.175,3.964,1.175,3.654,0,5.376-3.32,5.388-6.254.065-12.778-8.892-4.975-8.538-12.965.1-2.143,1.305-3.215,2.584-3.215,2.688,0,4.318,3.108,4.758,5.948h.638Z"/>
        <path id="Path_2573" data-name="Path 2573" d="M342.3,588.307H336.37v.659c1.792.134,2.407.725,2.407,4.422v9.335c0,2.8-.262,3.945-.59,4.7a4.461,4.461,0,0,1-4.194,2.736c-4.449,0-4.449-4.808-4.449-7.022V592.075c0-2.455.315-2.9,2.326-3.109v-.659h-7.226v.659c1.935.17,2.294.551,2.294,3.109v10.781c0,2.083,0,8.82,6.343,8.82,6.62,0,6.62-6.5,6.62-9.266v-9.022c0-3.627.431-4.146,2.4-4.422Z"/>
        <path id="Path_2574" data-name="Path 2574" d="M348.725,588.307h-7.207v.659c1.608.17,2.22.38,2.22,3.109v15.344c0,2.667-.59,2.974-2.22,3.114v.658h13.751l1.227-6.013h-.643c-1.451,4.528-3.09,4.667-6.93,4.667-2.113,0-2.577-.035-2.577-1.419V592.075c0-2.729.637-2.975,2.379-3.109Z"/>
        <path id="Path_2575" data-name="Path 2575" d="M364.324,610.533c-2.148-.1-2.455-.76-2.455-3.114V589.758h1.382c2.808,0,3.531.622,4.059,4.425h.617l-.157-5.876H353.358l-.156,5.876h.62c.56-3.769,1.243-4.425,4.061-4.425h1.379v17.286c0,2.557-.078,3.349-2.4,3.489v.658h7.467Z"/>
        <path id="Path_2576" data-name="Path 2576" d="M367.335,611.191h7.594v-.658c-1.889-.064-2.506-.412-2.506-3.114V592.075c0-2.768.642-3.008,2.506-3.109v-.659h-7.594v.659c2.126.134,2.487.551,2.487,3.109v15.344c0,2.458-.31,3.05-2.487,3.114Z"/>
        <path id="Path_2577" data-name="Path 2577" d="M391.995,588.307h-6.007v.659c1.739.17,2.456.446,2.456,4.422v11.551h-.053L378.6,588.307h-4.363v.659c1.021,0,1.426.17,2.476,1.9v15.248c0,3.734-.539,4.251-2.476,4.422v.658h6v-.658c-1.863-.1-2.4-.859-2.4-4.422V592.63h.051l11.253,18.944h.438V593.388c0-4.042.813-4.183,2.42-4.422Z"/>
        <path id="Path_2578" data-name="Path 2578" d="M408.383,601.212h-6.521v.631c1.741.166,2.253.2,2.253,3.075v3.335c0,1.244-1.762,2.043-3.5,2.043-3.97,0-6.622-3.913-6.622-10.169,0-8.74,3.757-10.924,6.185-10.924,3.581,0,4.9,3.427,5.6,5.914h.587l-.207-7.3h-.564a1.3,1.3,0,0,1-1.2,1.145c-.82,0-1.988-1.145-4.577-1.145-5.417,0-8.741,5.772-8.741,11.58,0,4.534.768,6.572,2.121,8.576a8.563,8.563,0,0,0,7.182,3.7c2.81,0,6.217-2,6.217-2.486V604.5c0-2.455.663-2.526,1.787-2.66Z"/>
      </g>
      <path id="Path_2579" data-name="Path 2579" d="M219.586,632.681H217.3l-3.344-7.257v7.257h-2.287V621.616h2.287l3.351,7.265v-7.265h2.279Z"/>
      <g id="Group_154" data-name="Group 154">
        <path id="Path_2580" data-name="Path 2580" d="M222.7,624.746a2.092,2.092,0,0,0,.277,1.163.855.855,0,0,0,.751.419.844.844,0,0,0,.734-.414,2.136,2.136,0,0,0,.275-1.19v-.563a2.084,2.084,0,0,0-.275-1.156A.869.869,0,0,0,222.98,623a2.071,2.071,0,0,0-.283,1.143Zm-1.3-.585a2.865,2.865,0,0,1,.647-1.953,2.262,2.262,0,0,1,3.343-.012,2.928,2.928,0,0,1,.647,2v.548a2.9,2.9,0,0,1-.631,1.949,2.089,2.089,0,0,1-1.679.741,2.114,2.114,0,0,1-1.684-.741,2.923,2.923,0,0,1-.643-1.986Z"/>
      </g>
      <path id="Path_2581" data-name="Path 2581" d="M232.56,632.681h-2.209v-8.45l-2.155.813v-1.794l4.13-1.649h.233Z"/>
      <path id="Path_2582" data-name="Path 2582" d="M245.462,627.893H241.9v2.935h4.216v1.854h-6.5V621.616H246.1v1.861h-4.2v2.614h3.563Z"/>
      <path id="Path_2583" data-name="Path 2583" d="M255.348,632.681h-2.287l-3.344-7.257v7.257H247.43V621.616h2.287l3.351,7.265v-7.265h2.28Z"/>
      <path id="Path_2584" data-name="Path 2584" d="M267.722,623.477h-2.8v9.2h-2.294v-9.2h-2.753v-1.861h7.848Z"/>
      <g id="Group_155" data-name="Group 155">
        <path id="Path_2585" data-name="Path 2585" d="M271.33,626.775h1.3a1.211,1.211,0,0,0,1.027-.444,1.9,1.9,0,0,0,.343-1.188c0-1.111-.442-1.665-1.331-1.665H271.33Zm1.135,1.862H271.33v4.044h-2.286V621.616h3.648a3.757,3.757,0,0,1,2.656.871,3.726,3.726,0,0,1-.7,5.558l1.984,4.53v.106H274.17Z"/>
      </g>
      <path id="Path_2586" data-name="Path 2586" d="M280.641,628.554h2.114L281.7,624.61Zm2.621,1.86h-3.12l-.607,2.267h-2.418l3.538-11.065h2.092l3.562,11.065h-2.441Z"/>
      <path id="Path_2587" data-name="Path 2587" d="M295.285,632.681H293l-3.344-7.257v7.257h-2.286V621.616h2.286l3.354,7.265v-7.265h2.278Z"/>
      <g id="Group_156" data-name="Group 156">
        <path id="Path_2588" data-name="Path 2588" d="M301.9,629.779a1.36,1.36,0,0,0-.354-1.023,4.114,4.114,0,0,0-1.285-.718,5.993,5.993,0,0,1-2.452-1.479,2.921,2.921,0,0,1-.747-2,2.781,2.781,0,0,1,1.016-2.247,3.879,3.879,0,0,1,2.578-.849,3.938,3.938,0,0,1,1.858.431,3.011,3.011,0,0,1,1.256,1.213,3.564,3.564,0,0,1,.44,1.779h-2.279a1.818,1.818,0,0,0-.337-1.184,1.209,1.209,0,0,0-.977-.406,1.239,1.239,0,0,0-.935.346,1.284,1.284,0,0,0-.333.93,1.137,1.137,0,0,0,.373.825,4.288,4.288,0,0,0,1.322.764,5.71,5.71,0,0,1,2.409,1.436,3.16,3.16,0,0,1,.748,2.167,2.828,2.828,0,0,1-.939,2.257,3.8,3.8,0,0,1-2.56.813,4.526,4.526,0,0,1-2-.44,3.371,3.371,0,0,1-1.412-1.262,3.606,3.606,0,0,1-.508-1.938h2.293a2.075,2.075,0,0,0,.382,1.39,1.577,1.577,0,0,0,1.244.435,1.078,1.078,0,0,0,1.2-1.239"/>
      </g>
      <path id="Path_2589" data-name="Path 2589" d="M308.709,621.616l2.139,8,2.132-8h2.986v11.065h-2.294v-2.994l.209-4.613-2.263,7.608h-1.556l-2.262-7.608.209,4.613v2.994h-2.287V621.616Z"/>
      <rect id="Rectangle_265" data-name="Rectangle 265" width="2.288" height="11.064" transform="translate(317.902 621.616)"/>
      <g id="Group_157" data-name="Group 157">
        <path id="Path_2590" data-name="Path 2590" d="M326.893,629.779a1.367,1.367,0,0,0-.353-1.023,4.13,4.13,0,0,0-1.287-.718,6,6,0,0,1-2.451-1.479,2.93,2.93,0,0,1-.746-2,2.78,2.78,0,0,1,1.015-2.247,3.878,3.878,0,0,1,2.577-.849,3.949,3.949,0,0,1,1.862.431,3,3,0,0,1,1.253,1.213,3.542,3.542,0,0,1,.439,1.779h-2.277a1.813,1.813,0,0,0-.339-1.184,1.2,1.2,0,0,0-.977-.406,1.235,1.235,0,0,0-.932.346,1.276,1.276,0,0,0-.334.93,1.137,1.137,0,0,0,.373.825,4.276,4.276,0,0,0,1.322.764,5.708,5.708,0,0,1,2.407,1.436,3.162,3.162,0,0,1,.75,2.167,2.82,2.82,0,0,1-.941,2.257,3.786,3.786,0,0,1-2.56.813,4.5,4.5,0,0,1-2-.44,3.383,3.383,0,0,1-1.414-1.262,3.607,3.607,0,0,1-.51-1.938h2.3a2.075,2.075,0,0,0,.38,1.39,1.58,1.58,0,0,0,1.243.435,1.078,1.078,0,0,0,1.2-1.239"/>
      </g>
      <rect id="Rectangle_266" data-name="Rectangle 266" width="2.287" height="11.064" transform="translate(330.813 621.616)"/>
      <g id="Group_158" data-name="Group 158">
        <path id="Path_2591" data-name="Path 2591" d="M340.7,626.289a4.464,4.464,0,0,0-.435-2.226,1.631,1.631,0,0,0-2.7-.026,4.246,4.246,0,0,0-.451,2.14v1.967a4.039,4.039,0,0,0,.445,2.139,1.513,1.513,0,0,0,1.37.687,1.479,1.479,0,0,0,1.329-.67,3.971,3.971,0,0,0,.442-2.087Zm2.3,1.855a5.083,5.083,0,0,1-1.078,3.457,3.762,3.762,0,0,1-2.989,1.232,3.809,3.809,0,0,1-3-1.221,5.026,5.026,0,0,1-1.106-3.416V626.3a5.344,5.344,0,0,1,1.082-3.559,4.158,4.158,0,0,1,5.982-.023,5.287,5.287,0,0,1,1.1,3.528Z"/>
      </g>
      <path id="Path_2592" data-name="Path 2592" d="M352.551,632.681h-2.285l-3.347-7.257v7.257h-2.285V621.616h2.285l3.354,7.265v-7.265h2.278Z"/>
      <path id="Path_2593" data-name="Path 2593" d="M360.236,627.893h-3.563v2.935h4.215v1.854h-6.5V621.616h6.485v1.861h-4.2v2.614h3.563Z"/>
      <g id="Group_159" data-name="Group 159">
        <path id="Path_2594" data-name="Path 2594" d="M366.987,629.779a1.364,1.364,0,0,0-.354-1.023,4.122,4.122,0,0,0-1.286-.718,5.982,5.982,0,0,1-2.451-1.479,2.93,2.93,0,0,1-.746-2,2.777,2.777,0,0,1,1.014-2.247,3.883,3.883,0,0,1,2.579-.849,3.948,3.948,0,0,1,1.859.431,3.015,3.015,0,0,1,1.255,1.213,3.574,3.574,0,0,1,.44,1.779h-2.28a1.824,1.824,0,0,0-.336-1.184,1.211,1.211,0,0,0-.977-.406,1.239,1.239,0,0,0-.935.346,1.289,1.289,0,0,0-.334.93,1.138,1.138,0,0,0,.374.825,4.294,4.294,0,0,0,1.321.764,5.7,5.7,0,0,1,2.409,1.436,3.156,3.156,0,0,1,.749,2.167,2.828,2.828,0,0,1-.939,2.257,3.8,3.8,0,0,1-2.56.813,4.526,4.526,0,0,1-2-.44,3.366,3.366,0,0,1-1.412-1.262,3.589,3.589,0,0,1-.509-1.938h2.294a2.081,2.081,0,0,0,.38,1.39,1.584,1.584,0,0,0,1.246.435,1.079,1.079,0,0,0,1.2-1.239"/>
      </g>
    </g>
  </g>
</svg>
