<svg xmlns="http://www.w3.org/2000/svg" width="48" height="48" viewBox="0 0 48 48">
  <g transform="translate(-62.1)">
    <rect width="48" height="48" transform="translate(62.1)" fill="none"/>
    <path d="M67.287,9.567" fill="none" stroke="#000" stroke-linecap="round" stroke-linejoin="round" stroke-width="2.055"/>
    <g>
      <path d="M69.114,10.906a3.024,3.024,0,0,0-.137,2A36.822,36.822,0,0,0,79.164,32.472,35.858,35.858,0,0,0,98.676,42.609a3.159,3.159,0,0,0,2-.139.979.979,0,0,0,.482-.607l1.209-5.41a1.457,1.457,0,0,0-.456-1.331c-.184-.184-4.283-1.664-6.221-2.611A1.629,1.629,0,0,0,93.574,33l-.753,1.3a1.915,1.915,0,0,1-1.179.888c-1.9.479-7.766-4.924-9.042-6.2-1.321-1.322-6.907-7.334-6.423-9.23a1.9,1.9,0,0,1,.889-1.18c1.13-.655.824-.478,1.283-.746a1.63,1.63,0,0,0,.5-2.122,33.234,33.234,0,0,1-1.888-5.2,1.694,1.694,0,0,0-1.812-1.29s-.093.022-5.439,1.216A.975.975,0,0,0,69.114,10.906Z" fill="none" stroke="#405921" stroke-linecap="round" stroke-linejoin="round" stroke-width="2"/>
      <path d="M85.619,13.677A10.693,10.693,0,0,1,96.312,24.37" fill="none" stroke="#405921" stroke-linecap="round" stroke-linejoin="round" stroke-width="2"/>
      <path d="M85.619,9.147A15.225,15.225,0,0,1,100.844,24.37" fill="none" stroke="#405921" stroke-linecap="round" stroke-linejoin="round" stroke-width="2"/>
    </g>
  </g>
</svg>
