<svg xmlns="http://www.w3.org/2000/svg" width="42.02" height="42" viewBox="0 0 42.02 42">
  <g transform="translate(-135.955 -1153)">
    <path id="Path_2552" data-name="Path 2552" d="M-250.9,13.041l-14.12-4.756v21l15.307-7.074L-261.524,44h12.543l3.719-3.535" transform="translate(401.975 1150)" fill="none" stroke="#405921" stroke-linecap="round" stroke-linejoin="round" stroke-width="2" fill-rule="evenodd"/>
    <path id="Path_2553" data-name="Path 2553" d="M-239.15,13.041-225,8.285v21l-15.3-7.074L-228.5,44h-12.541l-3.719-3.535" transform="translate(401.975 1150)" fill="none" stroke="#405921" stroke-linecap="round" stroke-linejoin="round" stroke-width="2" fill-rule="evenodd"/>
    <path id="Path_2554" data-name="Path 2554" d="M-238.773,10.289a6.29,6.29,0,0,1-6.292,6.29,6.288,6.288,0,0,1-6.289-6.29A6.287,6.287,0,0,1-245.065,4,6.29,6.29,0,0,1-238.773,10.289Z" transform="translate(401.975 1150)" fill="none" stroke="#405921" stroke-linecap="round" stroke-linejoin="round" stroke-width="2" fill-rule="evenodd"/>
  </g>
</svg>
