<svg xmlns="http://www.w3.org/2000/svg" xmlns:xlink="http://www.w3.org/1999/xlink" width="180" height="180" viewBox="0 0 180 180">
  <defs>
    <linearGradient id="linear-gradient" x1="0.5" x2="0.5" y2="1" gradientUnits="objectBoundingBox">
      <stop offset="0" stop-color="#a2bd30"/>
      <stop offset="0.325" stop-color="#3e5720"/>
      <stop offset="1" stop-color="#0d1207"/>
    </linearGradient>
  </defs>
  <path id="Path_2754" data-name="Path 2754" d="M90,0A90,90,0,1,1,0,90,90,90,0,0,1,90,0Z" fill="url(#linear-gradient)"/>
  <g id="Group_338" data-name="Group 338" transform="translate(-511.274 -204.926)">
    <g id="Group_180" data-name="Group 180" transform="translate(-51 55)">
      <path id="Path_2602" data-name="Path 2602" d="M675.573,181.665H631.024l8.259,19.938-19.949-9.854v43.486l19.24-9.384-5.1,11.679,4.07,2.716L648.9,215.314,624.434,227.39V199.67l24.387,11.644-10.348-24.782h29.084l-12.717,24.83,24.771-11.729v6H684.7V191.76l-18.937,9.109Z" fill="#fff"/>
      <g id="Group_179" data-name="Group 179">
        <path id="Path_2603" data-name="Path 2603" d="M710.551,248.292,686.8,237.307,697.984,279.3H687.677l-2.716-7.546V229.314l-19.859,9.62a12.961,12.961,0,0,0-2.816-11.654,14.142,14.142,0,0,0-8.822-4.534v-4.079l20.573,9.631,2.342-4.02s-5.454-4.707-1.578-11.04c0,0,2.785-5.017,9.329-3.413a8.425,8.425,0,0,1,6.229,8.5s.021,3.8-2.578,6l2.346,3.913,20.424-9.518Zm-71.669,16.386,1.768-.821-.97,3.418Zm25.728-.111-.792,2.6-.96-3.416Zm15.677,1.4-24.733-10.317,12.775,41.967H658.066l-3.362-9.835H649.77l-2.829,9.835H635.525l12.371-42-23.964,10.809-.032-29.542,20.357,9.581,2.339-4.149a9.946,9.946,0,0,1-2.483-4.53,8.839,8.839,0,0,1,1.647-7.249s1.983-3.407,7.226-3.407c0,0,6.8.463,7.795,8.229a8.434,8.434,0,0,1-3.081,7.26l2.274,3.885,20.313-9.874Zm-3.908,13.424h-8.824l-1.149-4.346,2.59-8.784,9.977,4.139Zm-48.223,0-2.958-8.477,9.448-4.331,2.592,8.865-1.136,3.943ZM715.2,211.4l-20.484,9.477s2.4-10.023-7.151-14.664a13.211,13.211,0,0,0-13.665,1.414,12.454,12.454,0,0,0-4.721,13.5l-20.368-9.8v11.867a13.153,13.153,0,0,0-7.334,5.491,13.332,13.332,0,0,0-2.17,9.123,11.01,11.01,0,0,0,.387,1.6l-20.359-9.744v41.235l-2.484,8.491H605.481l12.326-42.025-23.919,11.063V218.576l20.542,9.7,2.424-4.11a8.6,8.6,0,0,1-2.526-9.285,8.826,8.826,0,0,1,4.979-4.86v-4.685a12.755,12.755,0,0,0-9.3,7.877s-1.709,4.352-.33,7.912l-20.4-9.765v44.179l21.286-9.874L599.35,283.892h21.025l2.015-6.9L624.7,283.9h10.07l-5.375,18.25h21.03l1.97-6.926,2.418,6.854h19.8L669,283.932h10.916l2.035-7.037,2.342,7h19.727l-10.164-38.116,21.351,9.723Z" fill="#a2bd30"/>
      </g>
    </g>
  </g>
</svg>


