<svg xmlns="http://www.w3.org/2000/svg" width="198.467" height="45.055" viewBox="0 0 198.467 45.055">
  <g id="Group_98" data-name="Group 98" transform="translate(-94.433 -619.912)">
    <path id="Path_2485" data-name="Path 2485" d="M127.6,619.912H113.206l2.662,6.593-6.443-3.259v14.381l6.22-3.1L114,638.386l1.313.9,3.669-8.242-7.908,3.994v-9.166l7.881,3.851-3.343-8.2h9.4l-4.109,8.21,8-3.877v1.981h1.644v-4.586l-6.122,3.012Z" transform="translate(-5.283)" fill="#bfbfbf" fill-rule="evenodd"/>
    <path id="Path_2486" data-name="Path 2486" d="M112.956,644.153a3.26,3.26,0,0,1-.806-1.5,2.954,2.954,0,0,1,.532-2.4,2.653,2.653,0,0,1,2.335-1.126,2.88,2.88,0,0,1,2.523,2.719,2.832,2.832,0,0,1-1,2.4l.733,1.284,6.565-3.265v9.7l-7.995-3.41,4.128,13.877h-3.312l-1.092-3.253h-1.6l-.911,3.253h-3.685l4-13.888-7.741,3.577-.012-9.771,6.578,3.169Zm13.271,12.23-.877-2.5V639.855l-6.414,3.184a4.376,4.376,0,0,0-.914-3.856,4.535,4.535,0,0,0-2.85-1.5v-1.35l6.65,3.185.753-1.332a2.9,2.9,0,0,1-.51-3.652,2.627,2.627,0,0,1,3.017-1.126,2.766,2.766,0,0,1,2.01,2.813,2.857,2.857,0,0,1-.828,1.984l.753,1.294,6.6-3.147v9.778l-7.674-3.632,3.614,13.884Zm-3.651.031.839-2.973-3.223-1.369-.838,2.9.373,1.438Zm-3.8-4.9-.568-.272.313,1.131Zm-8.315.038.569-.272-.313,1.131Zm-3.467,4.864-.957-2.806,3.05-1.432.841,2.934-.365,1.3Zm6.674-22.506v3.925a4.225,4.225,0,0,0-2.371,1.813,4.483,4.483,0,0,0-.7,3.018,4.55,4.55,0,0,0,.12.528l-6.576-3.222v13.636l-.8,2.808H99.666l3.984-13.9-7.73,3.66v-9.866l6.637,3.2.781-1.357a2.744,2.744,0,0,1,.792-4.681v-1.548a4.127,4.127,0,0,0-3,2.6,4.245,4.245,0,0,0-.108,2.617l-6.59-3.229v14.608l6.877-3.265L97.685,657.9h6.794l.648-2.28.747,2.283h3.256l-1.734,6.034h6.794l.637-2.292.78,2.268H122l-1.813-6h3.529l.657-2.325.758,2.316h6.375l-3.29-12.605,6.9,3.217V633.93l-6.618,3.134a4.4,4.4,0,0,0-2.311-4.849,4.258,4.258,0,0,0-5.942,4.933Z" transform="translate(0 -4.187)" fill="#bfbfbf" fill-rule="evenodd"/>
    <path id="Path_2487" data-name="Path 2487" d="M182.961,642.429h-.639l-.014.106c-.249,1.967-.546,3.269-2.276,3.287V640.66c0-.866.188-.948,1.063-.948,2.752,0,3.164,1.4,3.515,3.7l.016.1h.621v-4.821h-9.573v.692l.023.113.111.01c.763.068,1.314.117,1.314,1.494v11.02c0,1.3-.417,1.362-1.342,1.5l-.1.015v.8h6.166v-.806l-.114-.007c-1.129-.067-1.7-.1-1.7-1.5V646.84c1.807.06,2.085,1.459,2.275,3.419l.01.11h.643Z" transform="translate(-28.63 -6.619)" fill="#bfbfbf"/>
    <path id="Path_2488" data-name="Path 2488" d="M234.071,653.345c-.7.032-.934-.657-1.671-3.08l-3.669-11.977-.027-.086h-.642l-3.679,12.566c-.435,1.506-.66,2.261-1.316,2.513-.79-.168-1.017-.385-1.017-1.91V641.307c0-1.842.444-1.885,1.339-1.974l.11-.01v-.8h-4.358l-3.2,10.453-3.2-10.453h-4.375v.8l.109.01c1.115.108,1.355.374,1.355,1.5v10.815c0,1.144-.164,1.479-1.012,1.642a.72.72,0,0,1-.286-.309l-3.25-6.374a3.805,3.805,0,0,0,2.539-3.954c0-3.593-2.983-4.129-4.762-4.129h-5.42v.692l.006.111.11.01c.914.089,1.331.13,1.331,1.973v10.064c0,1.746-.256,1.8-1.328,1.973-.674.016-.925-.674-1.656-3.079l-3.669-11.977-.027-.086h-.642l-3.678,12.566c-.479,1.655-.7,2.41-1.52,2.579l-.1.02v.79h3.583v-.8l-.112-.009c-.677-.055-1.238-.157-1.238-.858a18.814,18.814,0,0,1,.7-2.815h3.521a16.422,16.422,0,0,1,.723,2.906c0,.633-.178.653-1.166.763l-.15.016v.8h11.118v-.793l-.1-.018c-1.063-.2-1.349-.255-1.349-1.976V647.03h.246l3.373,7.057.033.07h6.778v-.8l-.111-.01c-1.247-.1-1.551-.523-1.551-2.133v-9.884l3.935,12.83h.625L219.257,641v10.755c0,1.4-.37,1.451-1.359,1.587l-.1.015v.8h8.557v-.8l-.112-.009c-.677-.055-1.238-.157-1.238-.858a18.774,18.774,0,0,1,.695-2.815h3.521a16.158,16.158,0,0,1,.725,2.906c0,.633-.178.653-1.167.763l-.15.017v.8H234.2v-.82Zm-5.175-4.806h-2.884l1.39-4.974ZM204.764,642.7c0,2.774-.729,3.32-2.769,3.36V640.38c.08-.679.1-.841.9-.841,1.276,0,1.87,1,1.87,3.157M192.6,648.539h-2.885l1.39-4.974Z" transform="translate(-32.434 -6.445)" fill="#bfbfbf"/>
    <path id="Path_2489" data-name="Path 2489" d="M268.76,644.005l-.148-5.122h-.345c-.132.751-.675.751-.757.751a10.084,10.084,0,0,0-2.9-.751c-2.831,0-5.595,2.755-5.595,7.855,0,5.67,2.846,7.855,5.5,7.855a5.317,5.317,0,0,0,4.459-2.891l-.3-.411a4.781,4.781,0,0,1-3.718,2.3c-2.074,0-4.031-1.982-4.031-6.809,0-3.279.724-4.737,1.366-5.6a3.186,3.186,0,0,1,2.469-1.39c2.023,0,3.208,1.822,3.62,4.213Z" transform="translate(-58.001 -6.685)" fill="#bfbfbf" fill-rule="evenodd"/>
    <path id="Path_2490" data-name="Path 2490" d="M279.9,654.594c2.979,0,5.382-2.983,5.382-7.833,0-5.237-2.682-7.878-5.382-7.878s-5.38,2.641-5.38,7.878c0,4.85,2.4,7.833,5.38,7.833m0-.819c-1.826,0-3.5-2.027-3.5-7.036,0-5.192,1.827-7.037,3.5-7.037s3.505,1.845,3.505,7.037c0,5.009-1.679,7.036-3.505,7.036" transform="translate(-63.463 -6.685)" fill="#bfbfbf" fill-rule="evenodd"/>
    <path id="Path_2491" data-name="Path 2491" d="M301.525,639.374h-3.866v.433c1.119.114,1.579.3,1.579,2.915v7.605h-.033l-6.3-10.953H290.09v.433c.658,0,.922.114,1.6,1.253V651.1c0,2.46-.346,2.8-1.6,2.915v.433h3.867v-.433c-1.2-.067-1.546-.569-1.546-2.915v-8.88h.033l7.24,12.479h.279V642.721c0-2.664.526-2.755,1.563-2.915Z" transform="translate(-68.95 -6.858)" fill="#bfbfbf" fill-rule="evenodd"/>
    <path id="Path_2492" data-name="Path 2492" d="M313.649,638.883H313.3c-.033.25-.116.774-.576.774-.412,0-1.3-.774-2.287-.774-1.48,0-2.978,1.274-2.978,3.87,0,2.255.769,4.463,2.567,4.463,3.112,0,2.682,2.733,2.682,4.031,0,1.229-.659,2.527-1.975,2.527-2.221,0-3.06-2.96-3.373-4.031h-.378l.493,4.828h.363c0-.364.164-.752.51-.752.493,0,1.3.775,2.551.775,2.353,0,3.462-2.186,3.472-4.122.04-8.417-5.727-3.272-5.5-8.538.063-1.41.839-2.118,1.662-2.118,1.728,0,2.781,2.049,3.061,3.917h.411Z" transform="translate(-74.904 -6.685)" fill="#bfbfbf" fill-rule="evenodd"/>
    <path id="Path_2493" data-name="Path 2493" d="M329.035,639.374h-3.818v.433c1.152.091,1.548.479,1.548,2.915v6.148a7.874,7.874,0,0,1-.379,3.1,2.871,2.871,0,0,1-2.7,1.8c-2.863,0-2.863-3.165-2.863-4.622v-7.287c0-1.616.2-1.913,1.5-2.05v-.433h-4.656v.433c1.251.114,1.48.363,1.48,2.05v7.1c0,1.366,0,5.806,4.081,5.806,4.262,0,4.262-4.281,4.262-6.1v-5.944c0-2.391.279-2.732,1.546-2.915Z" transform="translate(-78.668 -6.858)" fill="#bfbfbf" fill-rule="evenodd"/>
    <path id="Path_2494" data-name="Path 2494" d="M339.08,639.374h-4.641v.433c1.036.114,1.432.251,1.432,2.05v10.11c0,1.753-.378,1.959-1.432,2.049v.433h8.853l.79-3.962h-.412c-.937,2.983-1.991,3.073-4.458,3.073-1.367,0-1.664-.022-1.664-.933v-10.77c0-1.8.412-1.958,1.532-2.05Z" transform="translate(-84.579 -6.858)" fill="#bfbfbf" fill-rule="evenodd"/>
    <path id="Path_2495" data-name="Path 2495" d="M353.213,654.016c-1.381-.068-1.579-.5-1.579-2.05V640.331h.888c1.811,0,2.27.41,2.616,2.914h.4l-.1-3.871h-9.279l-.1,3.871h.4c.363-2.482.806-2.914,2.616-2.914h.888v11.386c0,1.684-.049,2.208-1.546,2.3v.433h4.8Z" transform="translate(-88.673 -6.858)" fill="#bfbfbf" fill-rule="evenodd"/>
    <path id="Path_2496" data-name="Path 2496" d="M360.1,654.448h4.887v-.433c-1.217-.046-1.611-.273-1.611-2.05v-10.11c0-1.822.41-1.982,1.611-2.05v-.433H360.1v.433c1.366.091,1.6.364,1.6,2.05v10.11c0,1.617-.2,2-1.6,2.05Z" transform="translate(-93.623 -6.858)" fill="#bfbfbf" fill-rule="evenodd"/>
    <path id="Path_2497" data-name="Path 2497" d="M378.393,639.374h-3.867v.433c1.118.114,1.579.3,1.579,2.915v7.605h-.033l-6.3-10.953h-2.814v.433c.659,0,.922.114,1.6,1.253V651.1c0,2.46-.346,2.8-1.6,2.915v.433h3.867v-.433c-1.2-.067-1.546-.569-1.546-2.915v-8.88h.032l7.24,12.479h.28V642.721c0-2.664.526-2.755,1.563-2.915Z" transform="translate(-96.038 -6.858)" fill="#bfbfbf" fill-rule="evenodd"/>
    <path id="Path_2498" data-name="Path 2498" d="M394.838,647.705h-4.2v.41c1.118.113,1.448.137,1.448,2.026v2.2c0,.819-1.136,1.342-2.254,1.342-2.552,0-4.262-2.572-4.262-6.694,0-5.76,2.419-7.2,3.981-7.2,2.3,0,3.159,2.254,3.6,3.895h.379l-.133-4.8h-.361a.842.842,0,0,1-.774.751c-.526,0-1.282-.751-2.945-.751-3.488,0-5.627,3.8-5.627,7.627,0,2.984.493,4.327,1.365,5.648a5.472,5.472,0,0,0,4.624,2.436c1.81,0,4-1.32,4-1.64v-3.086c0-1.616.427-1.664,1.151-1.753Z" transform="translate(-101.939 -6.685)" fill="#bfbfbf" fill-rule="evenodd"/>
    <path id="Path_2499" data-name="Path 2499" d="M182.272,685.987h-1l-3.19-3.69v3.69h-1.3v-6.074h.974l3.216,3.788v-3.788h1.3Z" transform="translate(-29.022 -21.144)" fill="#bfbfbf"/>
    <path id="Path_2500" data-name="Path 2500" d="M189.82,681.5a1.483,1.483,0,1,1-1.482-1.455,1.436,1.436,0,0,1,1.482,1.455m-.82,0a.668.668,0,1,0-1.333,0,.67.67,0,1,0,1.333,0" transform="translate(-32.57 -21.191)" fill="#bfbfbf"/>
    <path id="Path_2501" data-name="Path 2501" d="M199.256,685.987h-4.27v-1.054h1.546v-3.654l-1.474.438v-1.1l2-.706h.742v5.02h1.456Z" transform="translate(-35.435 -21.144)" fill="#bfbfbf"/>
    <path id="Path_2502" data-name="Path 2502" d="M213.521,682.4h2.841v1.17h-2.841v1.241h3.207v1.171h-4.5v-6.074h4.5v1.17h-3.207Z" transform="translate(-41.511 -21.144)" fill="#bfbfbf"/>
    <path id="Path_2503" data-name="Path 2503" d="M229.194,685.987h-1L225,682.3v3.69h-1.3v-6.074h.974L227.9,683.7v-3.788h1.3Z" transform="translate(-45.558 -21.144)" fill="#bfbfbf"/>
    <path id="Path_2504" data-name="Path 2504" d="M245.93,681.092v4.895h-1.3v-4.895h-2.028v-1.18h5.35v1.18Z" transform="translate(-52.217 -21.144)" fill="#bfbfbf"/>
    <path id="Path_2505" data-name="Path 2505" d="M256.366,684.1v1.885h-1.3v-6.074h2.59a2.157,2.157,0,0,1,2.412,2.09,1.981,1.981,0,0,1-1.268,1.885l1.661,2.1h-1.554L257.42,684.1Zm1.25-1.188c.652,0,1.179-.357,1.179-.911s-.527-.911-1.179-.911h-1.25v1.822Z" transform="translate(-56.609 -21.144)" fill="#bfbfbf"/>
    <path id="Path_2506" data-name="Path 2506" d="M268.8,684.8l-.473,1.171h-1.376l2.618-6.11h1.215l2.608,6.11H272.03l-.473-1.171Zm1.367-3.394-.894,2.224h1.8Z" transform="translate(-60.798 -21.125)" fill="#bfbfbf"/>
    <path id="Path_2507" data-name="Path 2507" d="M286.588,685.987h-1L282.4,682.3v3.69h-1.3v-6.074h.974l3.215,3.788v-3.788h1.3Z" transform="translate(-65.784 -21.144)" fill="#bfbfbf"/>
    <path id="Path_2508" data-name="Path 2508" d="M299.289,681.7h-1.278a1.01,1.01,0,0,0-1.152-.894c-.634,0-1.054.268-1.054.742,0,.411.3.589.857.7l.751.151c1.161.25,1.849.7,1.849,1.716,0,1.161-.955,1.929-2.412,1.929a2.388,2.388,0,0,1-2.662-2.135h1.286c.1.617.635,1,1.447,1,.642,0,1-.242,1-.652,0-.25-.143-.509-.76-.626l-.991-.187c-1.206-.242-1.733-.84-1.733-1.787,0-1.17.929-1.947,2.322-1.947a2.271,2.271,0,0,1,2.528,1.992" transform="translate(-70.395 -21.071)" fill="#bfbfbf"/>
    <path id="Path_2509" data-name="Path 2509" d="M307.51,684.8l-.473,1.171H305.66l2.618-6.11h1.215l2.607,6.11h-1.366l-.473-1.171Zm1.366-3.394-.893,2.224h1.8Z" transform="translate(-74.437 -21.125)" fill="#bfbfbf"/>
    <path id="Path_2510" data-name="Path 2510" d="M323.724,683.462h1.322a2.935,2.935,0,0,1-2.993,2.581,3.162,3.162,0,1,1,0-6.324,2.935,2.935,0,0,1,2.993,2.582h-1.322a1.614,1.614,0,0,0-1.671-1.349,1.93,1.93,0,0,0,0,3.858,1.615,1.615,0,0,0,1.671-1.348" transform="translate(-79.097 -21.076)" fill="#bfbfbf"/>
    <path id="Path_2511" data-name="Path 2511" d="M337.693,683.462h1.322a2.935,2.935,0,0,1-2.993,2.581,3.162,3.162,0,1,1,0-6.324,2.935,2.935,0,0,1,2.993,2.582h-1.322a1.614,1.614,0,0,0-1.671-1.349,1.93,1.93,0,0,0,0,3.858,1.615,1.615,0,0,0,1.671-1.348" transform="translate(-84.019 -21.076)" fill="#bfbfbf"/>
    <rect id="Rectangle_6" data-name="Rectangle 6" width="1.295" height="6.074" transform="translate(258.022 658.768)" fill="#bfbfbf"/>
    <path id="Path_2512" data-name="Path 2512" d="M360.059,682.881a3.175,3.175,0,1,1-3.18-3.162,3.149,3.149,0,0,1,3.18,3.162m-1.313,0a1.869,1.869,0,1,0-1.867,1.956,1.887,1.887,0,0,0,1.867-1.956" transform="translate(-91.37 -21.076)" fill="#bfbfbf"/>
    <path id="Path_2513" data-name="Path 2513" d="M373.672,685.987h-1l-3.189-3.69v3.69h-1.3v-6.074h.974l3.215,3.788v-3.788h1.3Z" transform="translate(-96.472 -21.144)" fill="#bfbfbf"/>
    <path id="Path_2514" data-name="Path 2514" d="M382.845,682.4h2.84v1.17h-2.84v1.241h3.206v1.171h-4.5v-6.074h4.5v1.17h-3.206Z" transform="translate(-101.181 -21.144)" fill="#bfbfbf"/>
    <path id="Path_2515" data-name="Path 2515" d="M397.706,681.7h-1.277a1.01,1.01,0,0,0-1.153-.894c-.634,0-1.054.268-1.054.742,0,.411.3.589.858.7l.75.151c1.161.25,1.849.7,1.849,1.716,0,1.161-.955,1.929-2.411,1.929a2.388,2.388,0,0,1-2.662-2.135h1.286c.1.617.635,1,1.447,1,.643,0,1-.242,1-.652,0-.25-.143-.509-.76-.626l-.991-.187c-1.206-.242-1.733-.84-1.733-1.787,0-1.17.929-1.947,2.322-1.947a2.27,2.27,0,0,1,2.528,1.992" transform="translate(-105.077 -21.071)" fill="#bfbfbf"/>
  </g>
</svg>
