<svg xmlns="http://www.w3.org/2000/svg" width="48" height="48" viewBox="0 0 48 48">
  <g transform="translate(-421 -1150)">
    <path d="M91,19.37a5.494,5.494,0,0,1-6,5.244A5.628,5.628,0,0,1,80,19.1V17.537a5.628,5.628,0,0,1,5-5.517,5.5,5.5,0,0,1,6,5.242Z" transform="translate(355 1150)" fill="none" stroke="#405921" stroke-linecap="round" stroke-linejoin="round" stroke-width="1.972"/>
    <path d="M100.187,16.091,95,19l3.01-5.028A6.393,6.393,0,0,1,97,10.5a6.5,6.5,0,1,1,3.187,5.591Z" transform="translate(355 1150)" fill="none" stroke="#405921" stroke-linecap="round" stroke-linejoin="round" stroke-width="2"/>
    <path d="M100.975,44c.005-.168.025-.331.025-.5a15.5,15.5,0,0,0-31,0c0,.169.019.332.025.5Z" transform="translate(355 1150)" fill="none" stroke="#405921" stroke-linecap="round" stroke-linejoin="round" stroke-width="2.273"/>
    <rect width="48" height="48" transform="translate(421 1150)" fill="none"/>
  </g>
</svg>
