<svg xmlns="http://www.w3.org/2000/svg" width="48" height="48" viewBox="0 0 48 48">
  <g>
    <path d="M34.584,38.487l3.177-3.178-1.729-4.152,1.022-2.471,4.16-1.714V22.479l-4.16-1.713-1.022-2.471,1.729-4.153-3.177-3.177-4.153,1.729L27.96,11.67l-1.714-4.16H21.753l-1.714,4.16-2.471,1.023-4.152-1.729-3.178,3.177,1.73,4.153-1.023,2.471-4.16,1.713v4.494l4.16,1.714,1.023,2.471-1.73,4.152,3.178,3.178,4.152-1.73,2.471,1.023,1.714,4.16h4.493l1.714-4.16,2.471-1.023Z" fill="none" stroke="#405921" stroke-miterlimit="10" stroke-width="2"/>
    <circle cx="6.977" cy="6.977" r="6.977" transform="matrix(0.616, -0.787, 0.787, 0.616, 14.206, 25.918)" fill="none" stroke="#405921" stroke-miterlimit="10" stroke-width="2"/>
  </g>
  <rect width="48" height="48" fill="none"/>
</svg>
